<mxfile host="65bd71144e">
    <diagram name="PÃ¡gina-1" id="zSxEKoCvvoKd-wm4mPc6">
        <mxGraphModel dx="335" dy="1431" grid="1" gridSize="10" guides="1" tooltips="1" connect="1" arrows="1" fold="1" page="1" pageScale="1" pageWidth="827" pageHeight="1169" math="0" shadow="0">
            <root>
                <mxCell id="0"/>
                <mxCell id="1" parent="0"/>
                <mxCell id="HakeheBa0rfwWfwoSgdx-5" value="" style="edgeStyle=orthogonalEdgeStyle;rounded=0;orthogonalLoop=1;jettySize=auto;html=1;endArrow=none;endFill=0;" parent="1" source="HakeheBa0rfwWfwoSgdx-1" target="HakeheBa0rfwWfwoSgdx-4" edge="1">
                    <mxGeometry relative="1" as="geometry"/>
                </mxCell>
                <mxCell id="HakeheBa0rfwWfwoSgdx-10" value="1" style="edgeLabel;html=1;align=center;verticalAlign=middle;resizable=0;points=[];" parent="HakeheBa0rfwWfwoSgdx-5" vertex="1" connectable="0">
                    <mxGeometry x="-0.3114" relative="1" as="geometry">
                        <mxPoint as="offset"/>
                    </mxGeometry>
                </mxCell>
                <mxCell id="HakeheBa0rfwWfwoSgdx-1" value="CLIENTE" style="rounded=0;whiteSpace=wrap;html=1;fillColor=#0050ef;strokeColor=#001DBC;fontColor=#ffffff;" parent="1" vertex="1">
                    <mxGeometry x="40" y="120" width="120" height="60" as="geometry"/>
                </mxCell>
                <mxCell id="HakeheBa0rfwWfwoSgdx-2" value="PRODUTO" style="rounded=0;whiteSpace=wrap;html=1;fillColor=#0050ef;strokeColor=#001DBC;fontColor=#ffffff;" parent="1" vertex="1">
                    <mxGeometry x="230" y="340" width="120" height="60" as="geometry"/>
                </mxCell>
                <mxCell id="HakeheBa0rfwWfwoSgdx-8" value="" style="edgeStyle=orthogonalEdgeStyle;rounded=0;orthogonalLoop=1;jettySize=auto;html=1;endArrow=none;endFill=0;" parent="1" source="HakeheBa0rfwWfwoSgdx-3" target="HakeheBa0rfwWfwoSgdx-7" edge="1">
                    <mxGeometry relative="1" as="geometry"/>
                </mxCell>
                <mxCell id="HakeheBa0rfwWfwoSgdx-13" value="N" style="edgeLabel;html=1;align=center;verticalAlign=middle;resizable=0;points=[];" parent="HakeheBa0rfwWfwoSgdx-8" vertex="1" connectable="0">
                    <mxGeometry x="-0.2408" y="2" relative="1" as="geometry">
                        <mxPoint as="offset"/>
                    </mxGeometry>
                </mxCell>
                <mxCell id="HakeheBa0rfwWfwoSgdx-3" value="PEDIDO" style="rounded=0;whiteSpace=wrap;html=1;fillColor=#0050ef;strokeColor=#001DBC;fontColor=#ffffff;" parent="1" vertex="1">
                    <mxGeometry x="450" y="120" width="120" height="60" as="geometry"/>
                </mxCell>
                <mxCell id="HakeheBa0rfwWfwoSgdx-6" style="edgeStyle=orthogonalEdgeStyle;rounded=0;orthogonalLoop=1;jettySize=auto;html=1;entryX=0;entryY=0.5;entryDx=0;entryDy=0;endArrow=none;endFill=0;" parent="1" source="HakeheBa0rfwWfwoSgdx-4" target="HakeheBa0rfwWfwoSgdx-3" edge="1">
                    <mxGeometry relative="1" as="geometry"/>
                </mxCell>
                <mxCell id="HakeheBa0rfwWfwoSgdx-11" value="N" style="edgeLabel;html=1;align=center;verticalAlign=middle;resizable=0;points=[];" parent="HakeheBa0rfwWfwoSgdx-6" vertex="1" connectable="0">
                    <mxGeometry y="1" relative="1" as="geometry">
                        <mxPoint as="offset"/>
                    </mxGeometry>
                </mxCell>
                <mxCell id="HakeheBa0rfwWfwoSgdx-4" value="REALIZA" style="rhombus;whiteSpace=wrap;html=1;fillColor=#f0a30a;strokeColor=#BD7000;rounded=0;fontColor=#000000;" parent="1" vertex="1">
                    <mxGeometry x="260" y="110" width="80" height="80" as="geometry"/>
                </mxCell>
                <mxCell id="HakeheBa0rfwWfwoSgdx-9" style="edgeStyle=orthogonalEdgeStyle;rounded=0;orthogonalLoop=1;jettySize=auto;html=1;entryX=1;entryY=0.5;entryDx=0;entryDy=0;endArrow=none;endFill=0;" parent="1" source="HakeheBa0rfwWfwoSgdx-7" target="HakeheBa0rfwWfwoSgdx-2" edge="1">
                    <mxGeometry relative="1" as="geometry">
                        <Array as="points">
                            <mxPoint x="510" y="370"/>
                        </Array>
                    </mxGeometry>
                </mxCell>
                <mxCell id="HakeheBa0rfwWfwoSgdx-12" value="N" style="edgeLabel;html=1;align=center;verticalAlign=middle;resizable=0;points=[];" parent="HakeheBa0rfwWfwoSgdx-9" vertex="1" connectable="0">
                    <mxGeometry x="0.4302" y="-1" relative="1" as="geometry">
                        <mxPoint as="offset"/>
                    </mxGeometry>
                </mxCell>
                <mxCell id="HakeheBa0rfwWfwoSgdx-7" value="ITENS_DO_PEDIDO" style="rhombus;whiteSpace=wrap;html=1;fillColor=#f0a30a;strokeColor=#BD7000;rounded=0;fontColor=#000000;" parent="1" vertex="1">
                    <mxGeometry x="445" y="240" width="130" height="90" as="geometry"/>
                </mxCell>
            </root>
        </mxGraphModel>
    </diagram>
</mxfile>